<svg viewBox="0 0 900 900" xmlns="http://www.w3.org/2000/svg" fill="#004894"><title>BASF</title>
<path fill-rule="evenodd" clip-rule="evenodd" d="M900 0H0V900H900V0ZM571.198 411.094H629.534C629.534 378.885 605.299 349 547.804 349C484.734 349 465.205 383.808 465.205 409.287C465.205 448.512 511.061 460.243 516.542 461.645C516.8 461.711 516.969 461.754 517.039 461.776C520.022 462.716 526.731 464.599 534.226 466.702L534.23 466.703C545.625 469.901 558.836 473.609 563.541 475.288C570.283 477.698 576.744 483.1 576.744 490.318C576.744 501.404 563.541 506.741 552.543 506.741C545.488 506.741 521.754 504.405 521.754 479.246H461.467C461.467 512.653 484.444 550.025 548.917 550.025C620.07 550.025 634.956 507.583 634.956 485.023C634.956 466.604 624.514 446.184 600.426 436.45C590.498 432.44 576.093 428.771 564.135 425.726L564.132 425.726L564.131 425.725C558.654 424.331 553.69 423.067 549.905 421.96C549.304 421.784 548.565 421.585 547.722 421.358C540.016 419.283 523.562 414.853 523.562 403.719C523.562 387.89 549.665 389.936 545.854 389.936C557.652 389.936 571.198 396.575 571.198 411.094ZM215.876 354.687H110.05L110 544.59H216.011C262.744 544.59 282.554 515.64 282.554 488.351C282.554 465.532 270.483 450.75 248.306 442.544C265.903 432.323 272.447 421.302 272.447 404.257C272.447 380.582 254.716 354.687 215.876 354.687ZM206.125 501.72H167.835V467.61H208.068C227.658 467.61 225.901 487.335 225.901 483.346C225.901 491.968 219.773 501.72 206.125 501.72ZM198.739 429.454H167.97V398.689H202.778C217.726 398.689 218.413 411.08 218.413 413.304C218.413 422.913 212.814 429.454 198.739 429.454ZM403.934 354.687H342.732L272.877 544.235H335.202L342.991 515.961H401.617L410.812 544.381H473.612L403.934 354.687ZM354.687 474.329L370.841 410.988L389.214 474.329H354.687ZM790.487 354.647H644.85L644.571 544.554H702.767V486.087H781.015V438.194H703.046V404.759H790.487V354.647Z"/>
</svg>
